<?xml version="1.0" encoding="UTF-8" standalone="no"?>
<!-- This is a Stata 15.1 generated SVG file (http://www.stata.com) -->

<svg version="1.1" width="6.00in" height="4.00in" viewBox="0 0 4320 2880" xmlns="http://www.w3.org/2000/svg" xmlns:xlink="http://www.w3.org/1999/xlink">
	<desc>Stata Graph - Graph</desc>
	<rect x="0" y="0" width="4320" height="2880" style="fill:#FFFFFF;stroke:none"/>
	<rect x="0.00" y="0.00" width="4320.00" height="2880.00" style="fill:#FFFFFF"/>
	<rect x="2.88" y="2.88" width="4314.24" height="2874.24" style="fill:none;stroke:#FFFFFF;stroke-width:5.76"/>
	<circle cx="719.14" cy="2086.73" r="17.95" style="fill:none;stroke:#606060;stroke-width:8.64"/>
	<circle cx="719.14" cy="1921.89" r="17.95" style="fill:none;stroke:#606060;stroke-width:8.64"/>
	<circle cx="900.04" cy="1921.89" r="17.95" style="fill:none;stroke:#606060;stroke-width:8.64"/>
	<circle cx="719.14" cy="1866.94" r="17.95" style="fill:none;stroke:#606060;stroke-width:8.64"/>
	<circle cx="900.04" cy="1866.94" r="17.95" style="fill:none;stroke:#606060;stroke-width:8.64"/>
	<circle cx="1080.94" cy="1866.94" r="17.95" style="fill:none;stroke:#606060;stroke-width:8.64"/>
	<circle cx="719.14" cy="1812.00" r="17.95" style="fill:none;stroke:#606060;stroke-width:8.64"/>
	<circle cx="900.04" cy="1812.00" r="17.95" style="fill:none;stroke:#606060;stroke-width:8.64"/>
	<circle cx="719.14" cy="1757.05" r="17.95" style="fill:none;stroke:#606060;stroke-width:8.64"/>
	<circle cx="900.04" cy="1757.05" r="17.95" style="fill:none;stroke:#606060;stroke-width:8.64"/>
	<circle cx="719.14" cy="1702.24" r="17.95" style="fill:none;stroke:#606060;stroke-width:8.64"/>
	<circle cx="719.14" cy="1647.30" r="17.95" style="fill:none;stroke:#606060;stroke-width:8.64"/>
	<circle cx="900.04" cy="1647.30" r="17.95" style="fill:none;stroke:#606060;stroke-width:8.64"/>
	<circle cx="719.14" cy="1592.35" r="17.95" style="fill:none;stroke:#606060;stroke-width:8.64"/>
	<circle cx="900.04" cy="1592.35" r="17.95" style="fill:none;stroke:#606060;stroke-width:8.64"/>
	<circle cx="1080.94" cy="1592.35" r="17.95" style="fill:none;stroke:#606060;stroke-width:8.64"/>
	<circle cx="1261.85" cy="1592.35" r="17.95" style="fill:none;stroke:#606060;stroke-width:8.64"/>
	<circle cx="1442.61" cy="1592.35" r="17.95" style="fill:none;stroke:#606060;stroke-width:8.64"/>
	<circle cx="719.14" cy="1537.40" r="17.95" style="fill:none;stroke:#606060;stroke-width:8.64"/>
	<circle cx="900.04" cy="1537.40" r="17.95" style="fill:none;stroke:#606060;stroke-width:8.64"/>
	<circle cx="1080.94" cy="1537.40" r="17.95" style="fill:none;stroke:#606060;stroke-width:8.64"/>
	<circle cx="1261.85" cy="1537.40" r="17.95" style="fill:none;stroke:#606060;stroke-width:8.64"/>
	<circle cx="719.14" cy="1482.46" r="17.95" style="fill:none;stroke:#606060;stroke-width:8.64"/>
	<circle cx="719.14" cy="1427.51" r="17.95" style="fill:none;stroke:#606060;stroke-width:8.64"/>
	<circle cx="900.04" cy="1427.51" r="17.95" style="fill:none;stroke:#606060;stroke-width:8.64"/>
	<circle cx="1080.94" cy="1427.51" r="17.95" style="fill:none;stroke:#606060;stroke-width:8.64"/>
	<circle cx="1261.85" cy="1427.51" r="17.95" style="fill:none;stroke:#606060;stroke-width:8.64"/>
	<circle cx="1442.61" cy="1427.51" r="17.95" style="fill:none;stroke:#606060;stroke-width:8.64"/>
	<circle cx="719.14" cy="1372.57" r="17.95" style="fill:none;stroke:#606060;stroke-width:8.64"/>
	<circle cx="719.14" cy="1317.62" r="17.95" style="fill:none;stroke:#606060;stroke-width:8.64"/>
	<circle cx="900.04" cy="1317.62" r="17.95" style="fill:none;stroke:#606060;stroke-width:8.64"/>
	<circle cx="1080.94" cy="1317.62" r="17.95" style="fill:none;stroke:#606060;stroke-width:8.64"/>
	<circle cx="1261.85" cy="1317.62" r="17.95" style="fill:none;stroke:#606060;stroke-width:8.64"/>
	<circle cx="1442.61" cy="1317.62" r="17.95" style="fill:none;stroke:#606060;stroke-width:8.64"/>
	<circle cx="1623.51" cy="1317.62" r="17.95" style="fill:none;stroke:#606060;stroke-width:8.64"/>
	<circle cx="719.14" cy="1262.81" r="17.95" style="fill:none;stroke:#606060;stroke-width:8.64"/>
	<circle cx="900.04" cy="1262.81" r="17.95" style="fill:none;stroke:#606060;stroke-width:8.64"/>
	<circle cx="1080.94" cy="1262.81" r="17.95" style="fill:none;stroke:#606060;stroke-width:8.64"/>
	<circle cx="1261.85" cy="1262.81" r="17.95" style="fill:none;stroke:#606060;stroke-width:8.64"/>
	<circle cx="719.14" cy="1207.86" r="17.95" style="fill:none;stroke:#606060;stroke-width:8.64"/>
	<circle cx="900.04" cy="1207.86" r="17.95" style="fill:none;stroke:#606060;stroke-width:8.64"/>
	<circle cx="1080.94" cy="1207.86" r="17.95" style="fill:none;stroke:#606060;stroke-width:8.64"/>
	<circle cx="1261.85" cy="1207.86" r="17.95" style="fill:none;stroke:#606060;stroke-width:8.64"/>
	<circle cx="1442.61" cy="1207.86" r="17.95" style="fill:none;stroke:#606060;stroke-width:8.64"/>
	<circle cx="1623.51" cy="1207.86" r="17.95" style="fill:none;stroke:#606060;stroke-width:8.64"/>
	<circle cx="719.14" cy="1152.92" r="17.95" style="fill:none;stroke:#606060;stroke-width:8.64"/>
	<circle cx="900.04" cy="1152.92" r="17.95" style="fill:none;stroke:#606060;stroke-width:8.64"/>
	<circle cx="1080.94" cy="1152.92" r="17.95" style="fill:none;stroke:#606060;stroke-width:8.64"/>
	<circle cx="1261.85" cy="1152.92" r="17.95" style="fill:none;stroke:#606060;stroke-width:8.64"/>
	<circle cx="719.14" cy="1097.97" r="17.95" style="fill:none;stroke:#606060;stroke-width:8.64"/>
	<circle cx="900.04" cy="1097.97" r="17.95" style="fill:none;stroke:#606060;stroke-width:8.64"/>
	<circle cx="719.14" cy="1043.03" r="17.95" style="fill:none;stroke:#606060;stroke-width:8.64"/>
	<circle cx="900.04" cy="1043.03" r="17.95" style="fill:none;stroke:#606060;stroke-width:8.64"/>
	<circle cx="1080.94" cy="1043.03" r="17.95" style="fill:none;stroke:#606060;stroke-width:8.64"/>
	<circle cx="1261.85" cy="1043.03" r="17.95" style="fill:none;stroke:#606060;stroke-width:8.64"/>
	<circle cx="1442.61" cy="1043.03" r="17.95" style="fill:none;stroke:#606060;stroke-width:8.64"/>
	<circle cx="719.14" cy="988.08" r="17.95" style="fill:none;stroke:#606060;stroke-width:8.64"/>
	<circle cx="900.04" cy="988.08" r="17.95" style="fill:none;stroke:#606060;stroke-width:8.64"/>
	<circle cx="1080.94" cy="988.08" r="17.95" style="fill:none;stroke:#606060;stroke-width:8.64"/>
	<circle cx="1261.85" cy="988.08" r="17.95" style="fill:none;stroke:#606060;stroke-width:8.64"/>
	<circle cx="1442.61" cy="988.08" r="17.95" style="fill:none;stroke:#606060;stroke-width:8.64"/>
	<circle cx="1623.51" cy="988.08" r="17.95" style="fill:none;stroke:#606060;stroke-width:8.64"/>
	<circle cx="1804.41" cy="988.08" r="17.95" style="fill:none;stroke:#606060;stroke-width:8.64"/>
	<circle cx="719.14" cy="933.13" r="17.95" style="fill:none;stroke:#606060;stroke-width:8.64"/>
	<circle cx="900.04" cy="933.13" r="17.95" style="fill:none;stroke:#606060;stroke-width:8.64"/>
	<circle cx="1080.94" cy="933.13" r="17.95" style="fill:none;stroke:#606060;stroke-width:8.64"/>
	<circle cx="1261.85" cy="933.13" r="17.95" style="fill:none;stroke:#606060;stroke-width:8.64"/>
	<circle cx="1442.61" cy="933.13" r="17.95" style="fill:none;stroke:#606060;stroke-width:8.64"/>
	<circle cx="1623.51" cy="933.13" r="17.95" style="fill:none;stroke:#606060;stroke-width:8.64"/>
	<circle cx="1804.41" cy="933.13" r="17.95" style="fill:none;stroke:#606060;stroke-width:8.64"/>
	<circle cx="1985.31" cy="933.13" r="17.95" style="fill:none;stroke:#606060;stroke-width:8.64"/>
	<circle cx="2166.07" cy="933.13" r="17.95" style="fill:none;stroke:#606060;stroke-width:8.64"/>
	<circle cx="719.14" cy="878.32" r="17.95" style="fill:none;stroke:#606060;stroke-width:8.64"/>
	<circle cx="900.04" cy="878.32" r="17.95" style="fill:none;stroke:#606060;stroke-width:8.64"/>
	<circle cx="1080.94" cy="878.32" r="17.95" style="fill:none;stroke:#606060;stroke-width:8.64"/>
	<circle cx="1261.85" cy="878.32" r="17.95" style="fill:none;stroke:#606060;stroke-width:8.64"/>
	<circle cx="1442.61" cy="878.32" r="17.95" style="fill:none;stroke:#606060;stroke-width:8.64"/>
	<circle cx="719.14" cy="823.38" r="17.95" style="fill:none;stroke:#606060;stroke-width:8.64"/>
	<circle cx="900.04" cy="823.38" r="17.95" style="fill:none;stroke:#606060;stroke-width:8.64"/>
	<circle cx="1080.94" cy="823.38" r="17.95" style="fill:none;stroke:#606060;stroke-width:8.64"/>
	<circle cx="1261.85" cy="823.38" r="17.95" style="fill:none;stroke:#606060;stroke-width:8.64"/>
	<circle cx="1442.61" cy="823.38" r="17.95" style="fill:none;stroke:#606060;stroke-width:8.64"/>
	<circle cx="1623.51" cy="823.38" r="17.95" style="fill:none;stroke:#606060;stroke-width:8.64"/>
	<circle cx="1804.41" cy="823.38" r="17.95" style="fill:none;stroke:#606060;stroke-width:8.64"/>
	<circle cx="719.14" cy="768.43" r="17.95" style="fill:none;stroke:#606060;stroke-width:8.64"/>
	<circle cx="900.04" cy="768.43" r="17.95" style="fill:none;stroke:#606060;stroke-width:8.64"/>
	<circle cx="1080.94" cy="768.43" r="17.95" style="fill:none;stroke:#606060;stroke-width:8.64"/>
	<circle cx="1261.85" cy="768.43" r="17.95" style="fill:none;stroke:#606060;stroke-width:8.64"/>
	<circle cx="1442.61" cy="768.43" r="17.95" style="fill:none;stroke:#606060;stroke-width:8.64"/>
	<circle cx="1623.51" cy="768.43" r="17.95" style="fill:none;stroke:#606060;stroke-width:8.64"/>
	<circle cx="1804.41" cy="768.43" r="17.95" style="fill:none;stroke:#606060;stroke-width:8.64"/>
	<circle cx="719.14" cy="713.49" r="17.95" style="fill:none;stroke:#606060;stroke-width:8.64"/>
	<circle cx="900.04" cy="713.49" r="17.95" style="fill:none;stroke:#606060;stroke-width:8.64"/>
	<circle cx="1080.94" cy="713.49" r="17.95" style="fill:none;stroke:#606060;stroke-width:8.64"/>
	<circle cx="1261.85" cy="713.49" r="17.95" style="fill:none;stroke:#606060;stroke-width:8.64"/>
	<circle cx="1442.61" cy="713.49" r="17.95" style="fill:none;stroke:#606060;stroke-width:8.64"/>
	<circle cx="1623.51" cy="713.49" r="17.95" style="fill:none;stroke:#606060;stroke-width:8.64"/>
	<circle cx="1804.41" cy="713.49" r="17.95" style="fill:none;stroke:#606060;stroke-width:8.64"/>
	<circle cx="1985.31" cy="713.49" r="17.95" style="fill:none;stroke:#606060;stroke-width:8.64"/>
	<circle cx="2166.07" cy="713.49" r="17.95" style="fill:none;stroke:#606060;stroke-width:8.64"/>
	<circle cx="719.14" cy="658.54" r="17.95" style="fill:none;stroke:#606060;stroke-width:8.64"/>
	<circle cx="900.04" cy="658.54" r="17.95" style="fill:none;stroke:#606060;stroke-width:8.64"/>
	<circle cx="1080.94" cy="658.54" r="17.95" style="fill:none;stroke:#606060;stroke-width:8.64"/>
	<circle cx="1261.85" cy="658.54" r="17.95" style="fill:none;stroke:#606060;stroke-width:8.64"/>
	<circle cx="1442.61" cy="658.54" r="17.95" style="fill:none;stroke:#606060;stroke-width:8.64"/>
	<circle cx="1623.51" cy="658.54" r="17.95" style="fill:none;stroke:#606060;stroke-width:8.64"/>
	<circle cx="1804.41" cy="658.54" r="17.95" style="fill:none;stroke:#606060;stroke-width:8.64"/>
	<circle cx="1985.31" cy="658.54" r="17.95" style="fill:none;stroke:#606060;stroke-width:8.64"/>
	<circle cx="2166.07" cy="658.54" r="17.95" style="fill:none;stroke:#606060;stroke-width:8.64"/>
	<circle cx="2346.97" cy="658.54" r="17.95" style="fill:none;stroke:#606060;stroke-width:8.64"/>
	<circle cx="2527.88" cy="658.54" r="17.95" style="fill:none;stroke:#606060;stroke-width:8.64"/>
	<circle cx="2708.78" cy="658.54" r="17.95" style="fill:none;stroke:#606060;stroke-width:8.64"/>
	<circle cx="2889.68" cy="658.54" r="17.95" style="fill:none;stroke:#606060;stroke-width:8.64"/>
	<circle cx="3070.44" cy="658.54" r="17.95" style="fill:none;stroke:#606060;stroke-width:8.64"/>
	<circle cx="3251.34" cy="658.54" r="17.95" style="fill:none;stroke:#606060;stroke-width:8.64"/>
	<circle cx="3432.24" cy="658.54" r="17.95" style="fill:none;stroke:#606060;stroke-width:8.64"/>
	<circle cx="3613.14" cy="658.54" r="17.95" style="fill:none;stroke:#606060;stroke-width:8.64"/>
	<circle cx="3793.91" cy="658.54" r="17.95" style="fill:none;stroke:#606060;stroke-width:8.64"/>
	<circle cx="3974.80" cy="658.54" r="17.95" style="fill:none;stroke:#606060;stroke-width:8.64"/>
	<circle cx="719.14" cy="603.59" r="17.95" style="fill:none;stroke:#606060;stroke-width:8.64"/>
	<circle cx="900.04" cy="603.59" r="17.95" style="fill:none;stroke:#606060;stroke-width:8.64"/>
	<circle cx="1080.94" cy="603.59" r="17.95" style="fill:none;stroke:#606060;stroke-width:8.64"/>
	<circle cx="1261.85" cy="603.59" r="17.95" style="fill:none;stroke:#606060;stroke-width:8.64"/>
	<circle cx="1442.61" cy="603.59" r="17.95" style="fill:none;stroke:#606060;stroke-width:8.64"/>
	<circle cx="1623.51" cy="603.59" r="17.95" style="fill:none;stroke:#606060;stroke-width:8.64"/>
	<circle cx="1804.41" cy="603.59" r="17.95" style="fill:none;stroke:#606060;stroke-width:8.64"/>
	<circle cx="1985.31" cy="603.59" r="17.95" style="fill:none;stroke:#606060;stroke-width:8.64"/>
	<circle cx="2166.07" cy="603.59" r="17.95" style="fill:none;stroke:#606060;stroke-width:8.64"/>
	<circle cx="2346.97" cy="603.59" r="17.95" style="fill:none;stroke:#606060;stroke-width:8.64"/>
	<circle cx="2527.88" cy="603.59" r="17.95" style="fill:none;stroke:#606060;stroke-width:8.64"/>
	<circle cx="2708.78" cy="603.59" r="17.95" style="fill:none;stroke:#606060;stroke-width:8.64"/>
	<circle cx="2889.68" cy="603.59" r="17.95" style="fill:none;stroke:#606060;stroke-width:8.64"/>
	<circle cx="3070.44" cy="603.59" r="17.95" style="fill:none;stroke:#606060;stroke-width:8.64"/>
	<circle cx="3251.34" cy="603.59" r="17.95" style="fill:none;stroke:#606060;stroke-width:8.64"/>
	<circle cx="719.14" cy="548.65" r="17.95" style="fill:none;stroke:#606060;stroke-width:8.64"/>
	<circle cx="900.04" cy="548.65" r="17.95" style="fill:none;stroke:#606060;stroke-width:8.64"/>
	<circle cx="1080.94" cy="548.65" r="17.95" style="fill:none;stroke:#606060;stroke-width:8.64"/>
	<circle cx="1261.85" cy="548.65" r="17.95" style="fill:none;stroke:#606060;stroke-width:8.64"/>
	<circle cx="1442.61" cy="548.65" r="17.95" style="fill:none;stroke:#606060;stroke-width:8.64"/>
	<circle cx="1623.51" cy="548.65" r="17.95" style="fill:none;stroke:#606060;stroke-width:8.64"/>
	<circle cx="1804.41" cy="548.65" r="17.95" style="fill:none;stroke:#606060;stroke-width:8.64"/>
	<circle cx="1985.31" cy="548.65" r="17.95" style="fill:none;stroke:#606060;stroke-width:8.64"/>
	<circle cx="2166.07" cy="548.65" r="17.95" style="fill:none;stroke:#606060;stroke-width:8.64"/>
	<circle cx="719.14" cy="493.84" r="17.95" style="fill:none;stroke:#606060;stroke-width:8.64"/>
	<circle cx="900.04" cy="493.84" r="17.95" style="fill:none;stroke:#606060;stroke-width:8.64"/>
	<circle cx="1080.94" cy="493.84" r="17.95" style="fill:none;stroke:#606060;stroke-width:8.64"/>
	<circle cx="1261.85" cy="493.84" r="17.95" style="fill:none;stroke:#606060;stroke-width:8.64"/>
	<circle cx="1442.61" cy="493.84" r="17.95" style="fill:none;stroke:#606060;stroke-width:8.64"/>
	<circle cx="1623.51" cy="493.84" r="17.95" style="fill:none;stroke:#606060;stroke-width:8.64"/>
	<circle cx="1804.41" cy="493.84" r="17.95" style="fill:none;stroke:#606060;stroke-width:8.64"/>
	<circle cx="1985.31" cy="493.84" r="17.95" style="fill:none;stroke:#606060;stroke-width:8.64"/>
	<circle cx="719.14" cy="438.89" r="17.95" style="fill:none;stroke:#606060;stroke-width:8.64"/>
	<circle cx="900.04" cy="438.89" r="17.95" style="fill:none;stroke:#606060;stroke-width:8.64"/>
	<circle cx="1080.94" cy="438.89" r="17.95" style="fill:none;stroke:#606060;stroke-width:8.64"/>
	<circle cx="1261.85" cy="438.89" r="17.95" style="fill:none;stroke:#606060;stroke-width:8.64"/>
	<circle cx="719.14" cy="383.95" r="17.95" style="fill:none;stroke:#606060;stroke-width:8.64"/>
	<circle cx="900.04" cy="383.95" r="17.95" style="fill:none;stroke:#606060;stroke-width:8.64"/>
	<circle cx="1080.94" cy="383.95" r="17.95" style="fill:none;stroke:#606060;stroke-width:8.64"/>
	<circle cx="1261.85" cy="383.95" r="17.95" style="fill:none;stroke:#606060;stroke-width:8.64"/>
	<circle cx="1442.61" cy="383.95" r="17.95" style="fill:none;stroke:#606060;stroke-width:8.64"/>
	<circle cx="1623.51" cy="383.95" r="17.95" style="fill:none;stroke:#606060;stroke-width:8.64"/>
	<circle cx="1804.41" cy="383.95" r="17.95" style="fill:none;stroke:#606060;stroke-width:8.64"/>
	<circle cx="1985.31" cy="383.95" r="17.95" style="fill:none;stroke:#606060;stroke-width:8.64"/>
	<circle cx="2166.07" cy="383.95" r="17.95" style="fill:none;stroke:#606060;stroke-width:8.64"/>
	<circle cx="2346.97" cy="383.95" r="17.95" style="fill:none;stroke:#606060;stroke-width:8.64"/>
	<circle cx="719.14" cy="329.00" r="17.95" style="fill:none;stroke:#606060;stroke-width:8.64"/>
	<circle cx="900.04" cy="329.00" r="17.95" style="fill:none;stroke:#606060;stroke-width:8.64"/>
	<circle cx="1080.94" cy="329.00" r="17.95" style="fill:none;stroke:#606060;stroke-width:8.64"/>
	<circle cx="1261.85" cy="329.00" r="17.95" style="fill:none;stroke:#606060;stroke-width:8.64"/>
	<circle cx="1442.61" cy="329.00" r="17.95" style="fill:none;stroke:#606060;stroke-width:8.64"/>
	<circle cx="1623.51" cy="329.00" r="17.95" style="fill:none;stroke:#606060;stroke-width:8.64"/>
	<circle cx="1804.41" cy="329.00" r="17.95" style="fill:none;stroke:#606060;stroke-width:8.64"/>
	<circle cx="1985.31" cy="329.00" r="17.95" style="fill:none;stroke:#606060;stroke-width:8.64"/>
	<circle cx="2166.07" cy="329.00" r="17.95" style="fill:none;stroke:#606060;stroke-width:8.64"/>
	<circle cx="2346.97" cy="329.00" r="17.95" style="fill:none;stroke:#606060;stroke-width:8.64"/>
	<circle cx="719.14" cy="274.05" r="17.95" style="fill:none;stroke:#606060;stroke-width:8.64"/>
	<circle cx="900.04" cy="274.05" r="17.95" style="fill:none;stroke:#606060;stroke-width:8.64"/>
	<circle cx="1080.94" cy="274.05" r="17.95" style="fill:none;stroke:#606060;stroke-width:8.64"/>
	<circle cx="1261.85" cy="274.05" r="17.95" style="fill:none;stroke:#606060;stroke-width:8.64"/>
	<circle cx="1442.61" cy="274.05" r="17.95" style="fill:none;stroke:#606060;stroke-width:8.64"/>
	<circle cx="1623.51" cy="274.05" r="17.95" style="fill:none;stroke:#606060;stroke-width:8.64"/>
	<circle cx="1804.41" cy="274.05" r="17.95" style="fill:none;stroke:#606060;stroke-width:8.64"/>
	<circle cx="1985.31" cy="274.05" r="17.95" style="fill:none;stroke:#606060;stroke-width:8.64"/>
	<circle cx="2166.07" cy="274.05" r="17.95" style="fill:none;stroke:#606060;stroke-width:8.64"/>
	<circle cx="719.14" cy="219.11" r="17.95" style="fill:none;stroke:#606060;stroke-width:8.64"/>
	<circle cx="900.04" cy="219.11" r="17.95" style="fill:none;stroke:#606060;stroke-width:8.64"/>
	<circle cx="1080.94" cy="219.11" r="17.95" style="fill:none;stroke:#606060;stroke-width:8.64"/>
	<circle cx="1261.85" cy="219.11" r="17.95" style="fill:none;stroke:#606060;stroke-width:8.64"/>
	<circle cx="719.14" cy="164.16" r="17.95" style="fill:none;stroke:#606060;stroke-width:8.64"/>
	<line x1="475.06" y1="2376.71" x2="434.97" y2="2376.71" style="stroke:#A0A0A0;stroke-width:5.76"/>
	<text x="414.99" y="2404.72" style="font-family:'Helvetica';font-size:79.92px;fill:#000000" text-anchor="end">40</text>
	<line x1="475.06" y1="1872.61" x2="434.97" y2="1872.61" style="stroke:#A0A0A0;stroke-width:5.76"/>
	<text x="414.99" y="1900.62" style="font-family:'Helvetica';font-size:79.92px;fill:#000000" text-anchor="end">50</text>
	<line x1="475.06" y1="1368.38" x2="434.97" y2="1368.38" style="stroke:#A0A0A0;stroke-width:5.76"/>
	<text x="414.99" y="1396.39" style="font-family:'Helvetica';font-size:79.92px;fill:#000000" text-anchor="end">60</text>
	<line x1="475.06" y1="864.15" x2="434.97" y2="864.15" style="stroke:#A0A0A0;stroke-width:5.76"/>
	<text x="414.99" y="892.15" style="font-family:'Helvetica';font-size:79.92px;fill:#000000" text-anchor="end">70</text>
	<line x1="475.06" y1="359.92" x2="434.97" y2="359.92" style="stroke:#A0A0A0;stroke-width:5.76"/>
	<text x="414.99" y="387.92" style="font-family:'Helvetica';font-size:79.92px;fill:#000000" text-anchor="end">80</text>
	<line x1="475.06" y1="2376.71" x2="475.06" y2="359.92" style="stroke:#A0A0A0;stroke-width:7.20"/>
	<text x="225.34" y="1270.50" style="font-family:'Helvetica';font-size:100.03px;fill:#000000" transform="rotate(-90 225.34,1270.50)" text-anchor="middle">Life expectancy at birth, 2014 (UNDP 2014)</text>
	<line x1="538.38" y1="2440.16" x2="538.38" y2="2480.12" style="stroke:#A0A0A0;stroke-width:5.76"/>
	<text x="538.38" y="2555.98" style="font-family:'Helvetica';font-size:79.92px;fill:#000000" text-anchor="middle">0</text>
	<line x1="1442.74" y1="2440.16" x2="1442.74" y2="2480.12" style="stroke:#A0A0A0;stroke-width:5.76"/>
	<text x="1442.74" y="2555.98" style="font-family:'Helvetica';font-size:79.92px;fill:#000000" text-anchor="middle">5</text>
	<line x1="2347.11" y1="2440.16" x2="2347.11" y2="2480.12" style="stroke:#A0A0A0;stroke-width:5.76"/>
	<text x="2347.11" y="2555.98" style="font-family:'Helvetica';font-size:79.92px;fill:#000000" text-anchor="middle">10</text>
	<line x1="3251.47" y1="2440.16" x2="3251.47" y2="2480.12" style="stroke:#A0A0A0;stroke-width:5.76"/>
	<text x="3251.47" y="2555.98" style="font-family:'Helvetica';font-size:79.92px;fill:#000000" text-anchor="middle">15</text>
	<line x1="4155.84" y1="2440.16" x2="4155.84" y2="2480.12" style="stroke:#A0A0A0;stroke-width:5.76"/>
	<text x="4155.84" y="2555.98" style="font-family:'Helvetica';font-size:79.92px;fill:#000000" text-anchor="middle">20</text>
	<line x1="538.38" y1="2440.16" x2="4155.84" y2="2440.16" style="stroke:#A0A0A0;stroke-width:7.20"/>
	<text x="2347.11" y="2694.53" style="font-family:'Helvetica';font-size:100.03px;fill:#000000" text-anchor="middle">Frequency</text>
</svg>
